HIERARCHY
ROOT Hips
{
	OFFSET 0.00000 0.00000 0.00000
	CHANNELS 6 Xposition Yposition Zposition Zrotation Yrotation Xrotation 
	JOINT LHipJoint
	{
		OFFSET 0 0 0
		CHANNELS 3 Zrotation Yrotation Xrotation
		JOINT LeftHip
		{
			OFFSET 1.53139 -1.83434 0.76626
			CHANNELS 3 Zrotation Yrotation Xrotation
			JOINT LeftKnee
			{
				OFFSET 2.56112 -7.03663 0.00000
				CHANNELS 3 Zrotation Yrotation Xrotation
				JOINT LeftAnkle
				{
					OFFSET 2.59983 -7.14299 0.00000
					CHANNELS 3 Zrotation Yrotation Xrotation
					JOINT LeftToe
					{
						OFFSET 0.13742 -0.37757 2.00054
						CHANNELS 3 Zrotation Yrotation Xrotation
						End Site
						{
							OFFSET 0.00000 -0.00000 1.02897
						}
					}
				}
			}
		}
	}
	JOINT RHipJoint
	{
		OFFSET 0 0 0
		CHANNELS 3 Zrotation Yrotation Xrotation
		JOINT RightHip
		{
			OFFSET -1.40122 -1.83435 0.76627
			CHANNELS 3 Zrotation Yrotation Xrotation
			JOINT RightKnee
			{
				OFFSET -2.54052 -6.98003 0.00000
				CHANNELS 3 Zrotation Yrotation Xrotation
				JOINT RightAnkle
				{
					OFFSET -2.63179 -7.23079 0.00000
					CHANNELS 3 Zrotation Yrotation Xrotation
					JOINT RightToe
					{
						OFFSET -0.24131 -0.66299 2.03908
						CHANNELS 3 Zrotation Yrotation Xrotation
						End Site
						{
							OFFSET -0.00000 -0.00000 1.07391
						}
					}
				}
			}
		}
	}
	JOINT lowerback
	{
		OFFSET 0 0 0
		CHANNELS 3 Zrotation Yrotation Xrotation
		JOINT Chest
		{
			OFFSET 0.01174 2.10302 -0.29778
			CHANNELS 3 Zrotation Yrotation Xrotation
			JOINT Chest2
			{
				OFFSET 0.00772 2.13227 -0.01247
				CHANNELS 3 Zrotation Yrotation Xrotation
				JOINT lowerneck
				{
					OFFSET 0 0 0
					CHANNELS 3 Zrotation Yrotation Xrotation
					JOINT Neck
					{
						OFFSET -0.09219 1.60848 0.31481
						CHANNELS 3 Zrotation Yrotation Xrotation
						JOINT Head
						{
							OFFSET 0.13974 1.65456 -0.31134
							CHANNELS 3 Zrotation Yrotation Xrotation
							End Site
							{
								OFFSET 0.04742 1.69515 -0.14578
							}
						}
					}
				}
				JOINT LeftCollar
				{
					OFFSET 0 0 0
					CHANNELS 3 Zrotation Yrotation Xrotation
					JOINT LeftShoulder
					{
						OFFSET 3.24909 1.02882 -0.23993
CHANNELS 3 Zrotation Xrotation Yrotation
						JOINT LeftElbow
						{
OFFSET 0 -5.329550 -0.000000
CHANNELS 3 Zrotation Xrotation Yrotation
							JOINT LeftWrist
							{
OFFSET 0 -3.692320 -0.000000
CHANNELS 3 Zrotation Xrotation Yrotation
								JOINT lhand
								{
									OFFSET 0 0 0
CHANNELS 3 Zrotation Xrotation Yrotation
									JOINT LFingers
									{
OFFSET 0 -0.536600 -0.000000
CHANNELS 3 Zrotation Xrotation Yrotation
										End Site
										{
OFFSET 0 -0.432620 -0.000000
										}
									}
								}
								JOINT LThumb
								{
OFFSET 0 0.000000 0.000000
CHANNELS 3 Zrotation Xrotation Yrotation
									End Site
									{
OFFSET 0 -0.439220 0.439220
									}
								}
							}
						}
					}
				}
				JOINT RightCollar
				{
					OFFSET 0 0 0
					CHANNELS 3 Zrotation Yrotation Xrotation
					JOINT RightShoulder
					{
						OFFSET -3.21387 0.93002 -0.34594
CHANNELS 3 Zrotation Xrotation Yrotation
						JOINT RightElbow
						{
OFFSET 0 -5.234310 0.000000
CHANNELS 3 Zrotation Xrotation Yrotation
							JOINT RightWrist
							{
OFFSET 0 -3.553010 -0.000000
CHANNELS 3 Zrotation Xrotation Yrotation
								JOINT rhand
								{
									OFFSET 0 0 0
CHANNELS 3 Zrotation Xrotation Yrotation
									JOINT RFingers
									{
OFFSET 0 -0.772520 -0.000000
CHANNELS 3 Zrotation Xrotation Yrotation
										End Site
										{
OFFSET 0 -0.622830 -0.000000
										}
									}
								}
								JOINT RThumb
								{
OFFSET 0 0.000000 0.000000
CHANNELS 3 Zrotation Xrotation Yrotation
									End Site
									{
OFFSET 0 -0.632340 0.632340
									}
								}
							}
						}
					}
				}
			}
		}
	}
}
MOTION
Frames: 6
Frame Time: 0.008333333333333333
0.752176 17.857748 -4.468249 6.627580 44.680402 3.563517 0.000000 0.000000 0.000000 -22.127280 -5.986742 -3.844647 1.002305 6.369703 17.861285 -0.530696 -15.895149 -4.273937 0.069269 -1.698342 -4.672791 0.000000 0.000000 0.000000 9.339329 1.024652 -12.864380 -6.844702 -15.199343 48.283747 -0.778866 10.029581 -16.218925 -0.632609 5.085596 -14.153659 -1.377628 2.076092 12.411029 0.621821 2.620627 0.588930 0.965030 1.339142 -6.434404 -10.086237 -0.115990 -19.033133 2.134966 3.605727 37.058582 3.465443 0.593430 16.322572 0.000000 0.000000 0.000000 5.174688 -0.117134 -30.594941 20.287456 -30.987049 5.678604 23.012077 12.451416 -18.937154 0.000000 0.000000 0.000000 -7.125000 0.000000 0.000000 -5.207177 50.351629 0.688516 0.000000 0.000000 0.000000 -2.356550 4.299246 8.156036 -19.025844 -29.450602 -5.043589 -19.770724 5.783566 -9.949027 0.000000 0.000000 0.000000 7.125000 0.000000 0.000000 5.138605 19.443502 3.147617
0.982375 17.707452 -4.908650 6.450614 45.596331 3.529481 0.000000 0.000000 0.000000 -22.764153 -5.772904 -8.775386 1.910101 8.676044 24.787287 -1.106828 -20.822109 -3.058126 0.052866 1.471696 4.047811 0.000000 0.000000 0.000000 18.080293 -5.197571 -13.190486 -6.266783 -14.681500 46.042250 -0.349169 16.558660 -14.862941 -0.496548 4.368866 -12.136292 -1.350284 2.283454 11.992695 0.051363 2.874340 0.998007 0.331749 1.453897 -5.743687 -10.433886 -0.392388 -18.382184 3.213471 2.816266 36.946686 3.839386 0.391233 16.128785 0.000000 0.000000 0.000000 6.435809 -0.750930 -27.616383 19.933635 -30.562309 5.497564 28.714715 15.296250 -23.980232 0.000000 0.000000 0.000000 -7.125000 0.000000 0.000000 -0.657635 56.872093 0.191120 0.000000 0.000000 0.000000 -1.054189 4.363744 10.187409 -19.566862 -30.116940 -5.312316 -20.926910 3.407430 -10.538571 0.000000 0.000000 0.000000 7.125000 0.000000 0.000000 4.328412 18.733504 2.716675
1.204284 17.664243 -5.437640 8.802873 45.058636 4.726829 0.000000 0.000000 0.000000 -24.285847 -0.979331 -14.079993 2.697885 10.188126 29.589082 -2.696582 -27.603277 10.167382 0.463801 4.368415 12.115472 0.000000 0.000000 0.000000 18.155570 -2.964990 -7.356581 -4.159463 -12.368994 37.051069 -1.419551 1.791352 -22.019892 -0.161748 2.560784 -7.059947 0.378423 2.622551 12.939269 -1.398960 3.481383 1.551402 -2.289139 1.704120 -5.500996 -11.133848 -0.562807 -18.649701 2.499988 3.195138 37.060033 3.728141 0.345228 16.252477 0.000000 0.000000 0.000000 6.840227 -1.840552 -24.303719 18.897252 -29.290540 4.980608 26.929452 14.766377 -22.136371 0.000000 0.000000 0.000000 -7.125000 0.000000 0.000000 -2.071415 54.493906 0.483389 0.000000 0.000000 0.000000 -1.084451 3.372957 11.950299 -18.898597 -29.292489 -4.981126 -21.012129 3.198747 -10.122064 0.000000 0.000000 0.000000 7.125000 0.000000 0.000000 4.258879 19.169243 2.631360
1.395875 17.688416 -6.000788 6.012997 45.996609 3.454897 0.000000 0.000000 0.000000 -19.819195 3.006592 -24.008291 4.337336 12.596309 37.875406 -0.802125 -21.574082 23.939663 0.186878 2.775427 7.654775 0.000000 0.000000 0.000000 18.052960 -3.098142 -6.087331 -3.141701 -10.920837 32.013520 -1.470338 4.304457 -21.925471 -0.076912 1.788857 -4.922521 3.641406 2.152427 13.578141 -0.327491 3.404202 1.520163 -3.018024 1.596424 -5.767373 -11.514901 -0.864566 -19.290779 0.665095 3.576360 35.804487 3.023240 0.226764 15.833754 0.000000 0.000000 0.000000 4.540956 -0.591169 -23.668333 18.104529 -28.290732 4.598692 27.031608 15.020821 -22.057895 0.000000 0.000000 0.000000 -7.125000 0.000000 0.000000 -1.941619 54.430055 0.450034 0.000000 0.000000 0.000000 -4.834081 3.828994 14.318666 -19.345197 -29.845310 -5.201547 -20.433901 2.544116 -9.847147 0.000000 0.000000 0.000000 7.125000 0.000000 0.000000 4.665029 19.503899 2.849208
1.644056 17.878404 -6.472289 4.777765 44.974007 2.244624 0.000000 0.000000 0.000000 -13.058824 -2.614814 -22.689986 4.305635 12.556204 37.729412 -0.684919 -15.447024 -0.227533 1.165081 -6.851964 -19.277613 0.000000 0.000000 0.000000 17.769726 -1.440677 -2.604937 -2.086309 -9.043215 25.930839 -1.082392 0.835805 -19.407753 -0.127129 2.296174 -6.324916 2.864557 1.737865 14.717134 0.424254 2.828556 1.652601 -1.732035 1.329520 -6.376666 -10.949228 -0.482971 -20.115349 1.379954 3.560307 34.501992 3.193630 0.424156 15.345144 0.000000 0.000000 0.000000 4.118805 1.424564 -23.185893 18.178597 -28.385265 4.633864 22.148262 15.028649 -16.846460 0.000000 0.000000 0.000000 -7.125000 0.000000 0.000000 -5.523269 48.009894 0.400919 0.000000 0.000000 0.000000 -7.270378 1.828871 11.746426 -18.926213 -29.326786 -4.994635 -20.790725 2.101077 -9.833387 0.000000 0.000000 0.000000 7.125000 0.000000 0.000000 4.410722 19.492595 2.694085
2.083153 17.970981 -6.930318 5.289548 43.691740 2.284844 0.000000 0.000000 0.000000 -8.299906 -8.847235 -16.400919 3.202097 11.014970 32.330625 0.000108 -0.162559 0.425049 0.011264 -0.660496 -1.815250 0.000000 0.000000 0.000000 14.922333 -0.702048 -0.480709 -1.594524 -7.964851 22.607291 -0.944299 1.205938 -18.000066 -0.199222 2.874253 -7.928776 1.807917 1.744825 14.800108 0.129960 2.647481 1.688646 -1.415166 1.263458 -6.425914 -10.653922 -0.767928 -20.108872 2.028979 2.690015 33.969225 3.240351 0.199123 15.131492 0.000000 0.000000 0.000000 4.135978 1.386979 -19.959192 16.970096 -26.818002 4.074011 21.363581 15.883880 -18.667827 0.000000 0.000000 0.000000 -7.125000 0.000000 0.000000 -6.748028 49.801660 0.797686 0.000000 0.000000 0.000000 -6.658656 2.048826 6.368793 -20.121880 -30.788889 -5.593632 -21.922158 -1.389967 -7.795311 0.000000 0.000000 0.000000 7.125000 0.000000 0.000000 3.564576 21.591623 2.006428
